<?xml version="1.0" encoding="UTF-8"?>
<svg xmlns="http://www.w3.org/2000/svg" viewBox="0 46 1200 514" width="1200" height="514"
     preserveAspectRatio="xMidYMax slice" role="presentation">
<defs>
  <linearGradient id="dtop" x1="0" y1="0" x2="0" y2="1">
    <stop offset="0" stop-color="#E0CBA2"/><stop offset="1" stop-color="#CBB183"/></linearGradient>
  <linearGradient id="dedge" x1="0" y1="0" x2="0" y2="1">
    <stop offset="0" stop-color="#BCA275"/><stop offset="1" stop-color="#A38A5E"/></linearGradient>
  <linearGradient id="dleg" x1="0" y1="0" x2="1" y2="0">
    <stop offset="0" stop-color="#D2BB90"/><stop offset=".55" stop-color="#B89E70"/><stop offset="1" stop-color="#9A8054"/></linearGradient>
  <linearGradient id="dapron" x1="0" y1="0" x2="0" y2="1">
    <stop offset="0" stop-color="#C6AD7F"/><stop offset="1" stop-color="#B1976A"/></linearGradient>
  <linearGradient id="floor" x1="0" y1="0" x2="0" y2="1">
    <stop offset="0" stop-color="#E8DAB9"/><stop offset=".45" stop-color="#F1E6CC"/><stop offset="1" stop-color="#F8EFDE"/></linearGradient>
  <linearGradient id="lampsh" x1="0" y1="0" x2="0" y2="1">
    <stop offset="0" stop-color="#7CA35B"/><stop offset="1" stop-color="#5F8144"/></linearGradient>
  <radialGradient id="lampglow" cx=".5" cy=".5" r=".5">
    <stop offset="0" stop-color="#FFEFC4" stop-opacity=".55"/><stop offset="1" stop-color="#FFEFC4" stop-opacity="0"/></radialGradient>
  <filter id="dsh"><feGaussianBlur stdDeviation="8"/></filter>
  <filter id="dsh2"><feGaussianBlur stdDeviation="4"/></filter>
</defs>

<!-- ── 바닥 · 걸레받이 ───────────────────── -->
<rect x="0" y="470" width="1200" height="90" fill="url(#floor)"/>
<rect x="0" y="462" width="1200" height="12" fill="#E2D3B4"/>
<rect x="0" y="470" width="1200" height="4" fill="#9C8A66" opacity=".16"/>

<!-- ── 책상 ─────────────────────────────── -->
<!-- 뒷다리 -->
<rect x="216" y="204" width="22" height="256" fill="#998050"/>
<rect x="962" y="204" width="22" height="256" fill="#998050"/>
<!-- 상판 그림자 -->
<ellipse cx="600" cy="286" rx="470" ry="26" fill="#9C8A66" opacity=".20" filter="url(#dsh)"/>
<!-- 앞다리 -->
<rect x="156" y="200" width="28" height="272" rx="3" fill="url(#dleg)"/>
<rect x="1016" y="200" width="28" height="272" rx="3" fill="url(#dleg)"/>
<!-- 옆 가로대 -->
<rect x="160" y="378" width="82" height="15" rx="4" fill="#B49A6F"/>
<rect x="958" y="378" width="82" height="15" rx="4" fill="#B49A6F"/>
<!-- 서랍부 -->
<rect x="176" y="200" width="848" height="74" rx="3" fill="url(#dapron)"/>
<rect x="196" y="212" width="392" height="52" rx="5" fill="#D0B991" stroke="#A38A5E" stroke-width="1.6"/>
<rect x="612" y="212" width="392" height="52" rx="5" fill="#D0B991" stroke="#A38A5E" stroke-width="1.6"/>
<rect x="204" y="219" width="376" height="8" rx="4" fill="#E4D2AE" opacity=".55"/>
<rect x="620" y="219" width="376" height="8" rx="4" fill="#E4D2AE" opacity=".55"/>
<g fill="#93794E">
  <ellipse cx="392" cy="240" rx="17" ry="9"/><ellipse cx="808" cy="240" rx="17" ry="9"/>
</g>
<g fill="#B69E70">
  <ellipse cx="392" cy="237" rx="14" ry="6"/><ellipse cx="808" cy="237" rx="14" ry="6"/>
</g>
<!-- 상판 -->
<rect x="138" y="168" width="924" height="22" rx="3" fill="url(#dtop)"/>
<rect x="138" y="188" width="924" height="15" rx="2" fill="url(#dedge)"/>
<rect x="138" y="168" width="924" height="4" fill="#EFE0C2" opacity=".7"/>
<path d="M224,173 Q562,171 901,173" stroke="#93794E" stroke-width="0.9" fill="none" opacity="0.10"/>
  <path d="M199,175 Q574,175 948,175" stroke="#93794E" stroke-width="0.9" fill="none" opacity="0.11"/>
  <path d="M171,178 Q589,177 1007,178" stroke="#93794E" stroke-width="1.1" fill="none" opacity="0.14"/>
  <path d="M164,181 Q548,183 932,181" stroke="#93794E" stroke-width="1.2" fill="none" opacity="0.13"/>
  <path d="M242,185 Q633,186 1024,185" stroke="#93794E" stroke-width="1.0" fill="none" opacity="0.12"/>
  <path d="M230,188 Q628,187 1026,188" stroke="#93794E" stroke-width="1.1" fill="none" opacity="0.13"/>
  <path d="M264,191 Q654,190 1044,191" stroke="#93794E" stroke-width="1.3" fill="none" opacity="0.12"/>

<!-- ── 책상 위 소품 ─────────────────────── -->
<!-- 데스크 매트 -->
<g>
  <rect x="404" y="150" width="392" height="20" rx="3" fill="#A8C97C"/>
  <rect x="404" y="150" width="392" height="5" rx="2" fill="#BBD497"/>
  <rect x="412" y="156" width="376" height="9" rx="2" fill="none" stroke="#8FA868" stroke-width="1.2" opacity=".7"/>
</g>
<!-- 펼친 노트 -->
<g>
  <ellipse cx="566" cy="171" rx="94" ry="7" fill="#9C8A66" opacity=".22" filter="url(#dsh2)"/>
  <path d="M478,168 L500,138 L566,138 L566,168 Z" fill="#FCF5E6"/>
  <path d="M566,138 L632,138 L654,168 L566,168 Z" fill="#F3E9D4"/>
  <g stroke="#C3D2AC" stroke-width="1.3" opacity=".95" stroke-linecap="round">
    <path d="M507,147 L560,147"/><path d="M502,154 L560,154"/><path d="M497,161 L560,161"/>
    <path d="M572,147 L625,147"/><path d="M572,154 L630,154"/><path d="M572,161 L635,161"/>
  </g>
  <path d="M478,168 L500,138 L566,138 L566,168 Z" fill="none" stroke="#D9CBAE" stroke-width="1.2"/>
  <path d="M566,138 L632,138 L654,168 L566,168 Z" fill="none" stroke="#D9CBAE" stroke-width="1.2"/>
  <path d="M566,136 L566,168" stroke="#C0B08C" stroke-width="2.2"/>
</g>
<!-- 연필꽂이 -->
<g>
  <ellipse cx="700" cy="173" rx="36" ry="6" fill="#9C8A66" opacity=".22" filter="url(#dsh2)"/>
  <g stroke-linecap="round">
    <path d="M690,142 L682,102" stroke="#7A2E3B" stroke-width="5.5"/>
    <path d="M700,140 L703,96"  stroke="#6B8E4E" stroke-width="5.5"/>
    <path d="M710,142 L720,104" stroke="#D9ADA6" stroke-width="5.5"/>
  </g>
  <path d="M677,137 h46 l-5,31 a5,5 0 0 1 -5,4 h-26 a5,5 0 0 1 -5,-4 z" fill="#E6EBD9"/>
  <ellipse cx="700" cy="137" rx="23" ry="5" fill="#CFDBBE"/>
  <path d="M677,137 h12 l-4,35 h-6 z" fill="#F2F5E8" opacity=".55"/>
</g>
<!-- 다육식물 -->
<g>
  <ellipse cx="452" cy="174" rx="28" ry="5" fill="#9C8A66" opacity=".22" filter="url(#dsh2)"/>
  <g fill="#7CA35B">
    <ellipse cx="452" cy="132" rx="9" ry="14"/>
    <ellipse cx="439" cy="139" rx="8" ry="12" transform="rotate(-26 439 139)"/>
    <ellipse cx="465" cy="139" rx="8" ry="12" transform="rotate(26 465 139)"/>
    <ellipse cx="445" cy="126" rx="6" ry="10" transform="rotate(-12 445 126)"/>
    <ellipse cx="460" cy="126" rx="6" ry="10" transform="rotate(12 460 126)"/>
  </g>
  <path d="M435,148 h34 l-4,24 a4,4 0 0 1 -4,3 h-18 a4,4 0 0 1 -4,-3 z" fill="#E6C2BB"/>
  <rect x="432" y="143" width="40" height="9" rx="3" fill="#EFD3CD"/>
</g>
<!-- 책 두 권 + 머그 -->
<g>
  <rect x="236" y="152" width="120" height="9" rx="2" fill="#7A2E3B"/>
  <rect x="242" y="143" width="112" height="9" rx="2" fill="#6B8E4E"/>
  <rect x="248" y="134" width="102" height="9" rx="2" fill="#E3A7A1"/>
  <rect x="242" y="161" width="114" height="7" rx="2" fill="#E8DCC4"/>
</g>
<g transform="translate(330,118)">
  <ellipse cx="30" cy="50" rx="30" ry="6" fill="#8A7250" opacity=".26" filter="url(#dsh2)"/>
  <path d="M52,16 q14,2 14,13 q0,11 -14,13" fill="none" stroke="#F0E3CD" stroke-width="6"/>
  <path d="M8,12 h44 l-5,38 a5,5 0 0 1 -5,4 h-24 a5,5 0 0 1 -5,-4 z" fill="#FAF0DE"/>
  <ellipse cx="30" cy="12" rx="22" ry="5" fill="#E4D6BC"/>
  <ellipse cx="30" cy="12" rx="16" ry="4" fill="#9A8054" opacity=".5"/>
</g>
<!-- 세워둔 액자 (무궁화) -->
<g>
  <ellipse cx="854" cy="170" rx="54" ry="7" fill="#8A7250" opacity=".26" filter="url(#dsh2)"/>
  <rect x="808" y="96" width="92" height="72" rx="3" fill="#B69E70"/>
  <rect x="815" y="103" width="78" height="58" rx="2" fill="#FBF3E2"/>
  <path d="M854,124 L854,157" stroke="#6B8E4E" stroke-width="2.2" stroke-linecap="round"/>
  <ellipse cx="841" cy="144" rx="8.5" ry="4.6" transform="rotate(-26 841 144)" fill="#7CA35B"/>
  <ellipse cx="867" cy="150" rx="8.5" ry="4.6" transform="rotate(26 867 150)" fill="#7CA35B"/>
  <path d="M850,145 L841,143" stroke="#5F8144" stroke-width="1.3" stroke-linecap="round"/>
  <path d="M858,151 L867,149" stroke="#5F8144" stroke-width="1.3" stroke-linecap="round"/>
  <ellipse cx="854.0" cy="113.8" rx="8.8" ry="11.2" transform="rotate(0 854.0 113.8)" fill="#F3BDB7"/>
  <ellipse cx="863.7" cy="120.8" rx="8.8" ry="11.2" transform="rotate(72 863.7 120.8)" fill="#F3BDB7"/>
  <ellipse cx="860.0" cy="132.3" rx="8.8" ry="11.2" transform="rotate(144 860.0 132.3)" fill="#F3BDB7"/>
  <ellipse cx="848.0" cy="132.3" rx="8.8" ry="11.2" transform="rotate(216 848.0 132.3)" fill="#F3BDB7"/>
  <ellipse cx="844.3" cy="120.8" rx="8.8" ry="11.2" transform="rotate(288 844.3 120.8)" fill="#F3BDB7"/>
  <ellipse cx="854.0" cy="115.5" rx="5.1" ry="6.8" transform="rotate(0 854.0 115.5)" fill="#E9A49E" opacity=".7"/>
  <ellipse cx="862.1" cy="121.4" rx="5.1" ry="6.8" transform="rotate(72 862.1 121.4)" fill="#E9A49E" opacity=".7"/>
  <ellipse cx="859.0" cy="130.9" rx="5.1" ry="6.8" transform="rotate(144 859.0 130.9)" fill="#E9A49E" opacity=".7"/>
  <ellipse cx="849.0" cy="130.9" rx="5.1" ry="6.8" transform="rotate(216 849.0 130.9)" fill="#E9A49E" opacity=".7"/>
  <ellipse cx="845.9" cy="121.4" rx="5.1" ry="6.8" transform="rotate(288 845.9 121.4)" fill="#E9A49E" opacity=".7"/>
  <circle cx="854" cy="124" r="4.2" fill="#7A2E3B"/>
  <path d="M854,124 L854,111.1" stroke="#7A2E3B" stroke-width="1.5" stroke-linecap="round"/>
  <circle cx="854" cy="110.4" r="1.7" fill="#C98A84"/>
  <rect x="815" y="103" width="78" height="58" rx="2" fill="none" stroke="#E2D4B8" stroke-width="1.5"/>
</g>
<!-- 스탠드 조명 -->
<g>
  <ellipse cx="962" cy="172" rx="42" ry="6" fill="#9C8A66" opacity=".24" filter="url(#dsh2)"/>
  <ellipse cx="962" cy="126" rx="104" ry="72" fill="url(#lampglow)"/>
  <!-- 받침 -->
  <ellipse cx="962" cy="168" rx="32" ry="8" fill="#A3895C"/>
  <ellipse cx="962" cy="165" rx="32" ry="8" fill="#BFA87C"/>
  <ellipse cx="962" cy="163" rx="22" ry="5" fill="#D2BB90"/>
  <!-- 기둥 -->
  <rect x="958" y="102" width="9" height="62" rx="4" fill="#B29A6E"/>
  <rect x="958" y="102" width="3" height="62" fill="#D2BB90" opacity=".6"/>
  <!-- 갓 -->
  <path d="M916,106 L1008,106 L986,62 L938,62 Z" fill="url(#lampsh)"/>
  <path d="M916,106 L938,62 L952,62 L934,106 Z" fill="#8FB06A" opacity=".45"/>
  <rect x="936" y="58" width="52" height="7" rx="3" fill="#5F8144"/>
  <ellipse cx="962" cy="106" rx="46" ry="8" fill="#F6E9C6"/>
  <ellipse cx="962" cy="105" rx="38" ry="6" fill="#FDF6DF"/>
  <rect x="958" y="48" width="9" height="12" rx="4" fill="#A3895C"/>
</g>
<!-- 연필 -->
<g transform="translate(742,162) rotate(-4)">
  <rect x="0" y="0" width="74" height="7" rx="2" fill="#D9A84F"/>
  <path d="M74,0 l12,3.5 l-12,3.5 z" fill="#E8D7B6"/><rect x="0" y="0" width="9" height="7" rx="2" fill="#B36A62"/>
</g>
<!-- ── 의자 (뒤에서 본 모습, 책상 앞) ──────── -->
<g>
  <!-- 바닥 그림자 -->
  <ellipse cx="712" cy="464" rx="146" ry="15" fill="#9C8A66" opacity=".26" filter="url(#dsh)"/>

  <!-- 다리 프레임 (뒤쪽 두 개 — 어둡게) -->
  <g stroke="#CDBB97" stroke-width="13" stroke-linecap="round" fill="none">
    <path d="M676,330 L646,430"/>
    <path d="M748,330 L778,430"/>
  </g>
  <g fill="#8A7A5C">
    <ellipse cx="644" cy="440" rx="13" ry="11"/>
    <ellipse cx="780" cy="440" rx="13" ry="11"/>
  </g>

  <!-- 다리 프레임 (앞쪽 두 개 — 밝게) -->
  <g stroke="#F2E7D1" stroke-width="15" stroke-linecap="round" fill="none">
    <path d="M656,332 L612,452"/>
    <path d="M768,332 L812,452"/>
  </g>
  <g stroke="#DFCFAE" stroke-width="5" stroke-linecap="round" fill="none" opacity=".8">
    <path d="M652,336 L609,452"/>
    <path d="M764,336 L809,452"/>
  </g>
  <!-- 가로 버팀대 -->
  <path d="M632,404 Q712,418 792,404" stroke="#E4D5B4" stroke-width="10" fill="none" stroke-linecap="round"/>
  <!-- 바퀴 -->
  <g>
    <ellipse cx="610" cy="462" rx="15" ry="12" fill="#7E6E52"/>
    <ellipse cx="814" cy="462" rx="15" ry="12" fill="#7E6E52"/>
    <ellipse cx="610" cy="459" rx="9" ry="6" fill="#A2906E"/>
    <ellipse cx="814" cy="459" rx="9" ry="6" fill="#A2906E"/>
  </g>

  <!-- 앉는 판 -->
  <path d="M598,300 Q712,288 826,300 L832,330 Q712,350 592,330 Z" fill="#D5BE96"/>
  <path d="M598,300 Q712,288 826,300 L827,308 Q712,296 597,308 Z" fill="#E6D6B4"/>
  <path d="M592,330 Q712,350 832,330 L830,340 Q712,360 594,340 Z" fill="#F2E7D1"/>

  <!-- 등받이와 좌판을 잇는 기둥 -->
  <g stroke="#EFE2C7" stroke-width="16" stroke-linecap="round" fill="none">
    <path d="M612,262 L620,300"/>
    <path d="M812,262 L804,300"/>
  </g>

  <!-- 등받이 바깥 프레임 -->
  <path d="M604,118 Q604,94 628,94 L808,94 Q832,94 832,118 L832,250
           Q832,276 806,276 L630,276 Q604,276 604,250 Z"
        fill="#7E6E52" opacity=".16" filter="url(#dsh2)"/>
  <path d="M598,112 Q598,88 622,88 L802,88 Q826,88 826,112 L826,244
           Q826,270 800,270 L624,270 Q598,270 598,244 Z" fill="#F4EAD4"/>
  <path d="M598,112 Q598,88 622,88 L802,88 Q826,88 826,112 L826,244
           Q826,270 800,270 L624,270 Q598,270 598,244 Z"
        fill="none" stroke="#CDB894" stroke-width="3"/>
  <!-- 왼쪽 밝은 면 -->
  <path d="M598,112 Q598,88 622,88 L646,88 L646,270 L624,270 Q598,270 598,244 Z"
        fill="#FBF4E4" opacity=".55"/>

  <!-- 메시 패널 -->
  <rect x="620" y="114" width="184" height="130" rx="14" fill="#D9C19A"/>
  <rect x="620" y="114" width="184" height="130" rx="14" fill="none" stroke="#C0A77E" stroke-width="2"/>
  <g stroke="#C4A97E" stroke-width="1.6" fill="none" opacity=".55">
      <path d="M626,122 Q712,124 798,122"/>
      <path d="M628,130 Q712,132 796,130"/>
      <path d="M626,138 Q712,140 798,138"/>
      <path d="M628,146 Q712,148 796,146"/>
      <path d="M626,154 Q712,156 798,154"/>
      <path d="M628,162 Q712,164 796,162"/>
      <path d="M626,170 Q712,172 798,170"/>
      <path d="M628,178 Q712,180 796,178"/>
      <path d="M626,186 Q712,188 798,186"/>
      <path d="M628,194 Q712,196 796,194"/>
      <path d="M626,202 Q712,204 798,202"/>
      <path d="M628,210 Q712,212 796,210"/>
      <path d="M626,218 Q712,220 798,218"/>
      <path d="M628,226 Q712,228 796,226"/>
      <path d="M626,234 Q712,236 798,234"/>
      <path d="M628,242 Q712,244 796,242"/>
      <path d="M626,250 Q712,252 798,250"/>
  </g>
  <rect x="620" y="114" width="60" height="130" rx="14" fill="#E4CFAB" opacity=".4"/>

  <!-- 프레임 모서리 나사 표현 -->
  <g fill="#E0CFAC">
    <circle cx="634" cy="128" r="5"/><circle cx="790" cy="128" r="5"/>
    <circle cx="634" cy="230" r="5"/><circle cx="790" cy="230" r="5"/>
  </g>

  <!-- 등받이 아래 받침대 -->
  <path d="M624,258 L800,258 Q812,258 812,266 L612,266 Q612,258 624,258 Z" fill="#E2D2AF"/>
</g>

<!-- ── 화분 (바닥, 왼쪽) ─────────────────── -->
<g transform="translate(26,14)">
  <ellipse cx="112" cy="502" rx="96" ry="15" fill="#9C8A66" opacity=".28" filter="url(#dsh)"/>
  <g stroke="#5F8144" stroke-width="5" fill="none" stroke-linecap="round">
    <path d="M112,382 Q89,323 66,280"/>
    <path d="M112,382 Q101,299 90,236"/>
    <path d="M112,382 Q115,289 118,218"/>
    <path d="M112,382 Q129,296 146,230"/>
    <path d="M112,382 Q141,314 170,264"/>
    <path d="M112,382 Q80,345 48,320"/>
    <path d="M112,382 Q149,340 186,310"/>
    <path d="M112,382 Q109,317 106,268"/>
    <path d="M112,382 Q125,321 138,276"/>
  </g>
  <g transform="translate(66,280) rotate(-42) scale(1.05)"><path d="M0,0 C15,-12 25,-38 0,-64 C-25,-38 -15,-12 0,0 Z" fill="#7CA35B"/><path d="M0,-4 L0,-56" stroke="#4F6B3E" stroke-width="1.8" opacity=".5" fill="none"/></g>
  <g transform="translate(90,236) rotate(-22) scale(1.15)"><path d="M0,0 C15,-12 25,-38 0,-64 C-25,-38 -15,-12 0,0 Z" fill="#6B8E4E"/><path d="M0,-4 L0,-56" stroke="#4F6B3E" stroke-width="1.8" opacity=".5" fill="none"/></g>
  <g transform="translate(118,218) rotate(-4) scale(1.25)"><path d="M0,0 C15,-12 25,-38 0,-64 C-25,-38 -15,-12 0,0 Z" fill="#7CA35B"/><path d="M0,-4 L0,-56" stroke="#4F6B3E" stroke-width="1.8" opacity=".5" fill="none"/></g>
  <g transform="translate(146,230) rotate(16) scale(1.15)"><path d="M0,0 C15,-12 25,-38 0,-64 C-25,-38 -15,-12 0,0 Z" fill="#6B8E4E"/><path d="M0,-4 L0,-56" stroke="#4F6B3E" stroke-width="1.8" opacity=".5" fill="none"/></g>
  <g transform="translate(170,264) rotate(36) scale(1.05)"><path d="M0,0 C15,-12 25,-38 0,-64 C-25,-38 -15,-12 0,0 Z" fill="#7CA35B"/><path d="M0,-4 L0,-56" stroke="#4F6B3E" stroke-width="1.8" opacity=".5" fill="none"/></g>
  <g transform="translate(48,320) rotate(-62) scale(0.92)"><path d="M0,0 C15,-12 25,-38 0,-64 C-25,-38 -15,-12 0,0 Z" fill="#6B8E4E"/><path d="M0,-4 L0,-56" stroke="#4F6B3E" stroke-width="1.8" opacity=".5" fill="none"/></g>
  <g transform="translate(186,310) rotate(58) scale(0.95)"><path d="M0,0 C15,-12 25,-38 0,-64 C-25,-38 -15,-12 0,0 Z" fill="#6B8E4E"/><path d="M0,-4 L0,-56" stroke="#4F6B3E" stroke-width="1.8" opacity=".5" fill="none"/></g>
  <g transform="translate(106,268) rotate(-10) scale(0.85)"><path d="M0,0 C15,-12 25,-38 0,-64 C-25,-38 -15,-12 0,0 Z" fill="#7CA35B"/><path d="M0,-4 L0,-56" stroke="#4F6B3E" stroke-width="1.8" opacity=".5" fill="none"/></g>
  <g transform="translate(138,276) rotate(12) scale(0.85)"><path d="M0,0 C15,-12 25,-38 0,-64 C-25,-38 -15,-12 0,0 Z" fill="#6B8E4E"/><path d="M0,-4 L0,-56" stroke="#4F6B3E" stroke-width="1.8" opacity=".5" fill="none"/></g>
  <!-- 화분 -->
  <path d="M40,384 h144 l-15,108 a7,7 0 0 1 -7,6 h-100 a7,7 0 0 1 -7,-6 z" fill="#DCB0A8"/>
  <rect x="32" y="372" width="160" height="20" rx="7" fill="#E9C4BD"/>
  <path d="M40,384 h26 l-11,114 h-12 z" fill="#F0D5D0" opacity=".45"/>
  <g stroke="#C89890" stroke-width="2" fill="none" opacity=".45">
    <path d="M46,412 Q112,418 178,412"/><path d="M50,440 Q112,446 174,440"/>
    <path d="M54,468 Q112,474 170,468"/>
  </g>
  <ellipse cx="112" cy="382" rx="72" ry="9" fill="#C08C84" opacity=".5"/>
</g>
</svg>
